Coordinates
version=1
nRows=9
nColumns=24
inDegrees=yes

Units are S.I. units (second, meters, Newtons, ...)
Angles are in degrees.

endheader
time	pelvis_tilt	pelvis_list	pelvis_rotation	pelvis_tx	pelvis_ty	pelvis_tz	hip_flexion_r	hip_adduction_r	hip_rotation_r	knee_angle_r	ankle_angle_r	subtalar_angle_r	mtp_angle_r	hip_flexion_l	hip_adduction_l	hip_rotation_l	knee_angle_l	ankle_angle_l	subtalar_angle_l	mtp_angle_l	lumbar_extension	lumbar_bending	lumbar_rotation
      0.84166667	     -0.21756423	     -1.96083307	     -1.51663912	     -0.45856766	      1.07181819	      0.35408849	      7.84754806	      7.97925961	     -1.04181944	    -10.18978036	     -1.12286485	    -10.72213831	      2.55511637	     13.29433389	     -3.35603579	     -1.82846215	    -62.63254591	      2.48434713	     -5.32439961	      5.44540622	      4.68890264	      4.91834915	     -1.32046429
      0.84583333	     -0.19353642	     -1.88023956	     -1.60393836	     -0.45354364	      1.07247469	      0.35443458	      7.45078986	      7.90838745	     -0.93582961	    -10.06183945	     -0.95232056	    -10.61231408	      2.57640636	     13.79273083	     -3.28268986	     -1.69906029	    -62.40008998	      3.02257257	     -5.98844070	      5.37126074	      4.62164113	      4.79333138	     -1.20516170
      0.85000000	     -0.16764192	     -1.78747361	     -1.70339656	     -0.44854018	      1.07311508	      0.35471382	      7.05671754	      7.81530958	     -0.83730277	     -9.94619334	     -0.78002557	    -10.50425022	      2.59629450	     14.27165740	     -3.18670207	     -1.57571335	    -62.10153964	      3.53609747	     -6.57932675	      5.29733892	      4.55697308	      4.65794678	     -1.08498967
      0.85416667	     -0.10816117	     -1.65946451	     -1.87552887	     -0.44356612	      1.07380803	      0.35490858	      6.64962287	      7.66968946	     -0.80301339	     -9.88199854	     -0.45941679	    -10.08922120	      2.68116260	     14.67908426	     -3.04321707	     -1.52672327	    -61.69871717	      3.81544937	     -7.38854537	      4.92114745	      4.40449965	      4.61319994	     -0.68252963
      0.85833333	     -0.08885918	     -1.58601655	     -1.94422047	     -0.43857367	      1.07438958	      0.35523818	      6.24767638	      7.60510034	     -0.69080418	     -9.72161735	     -0.35702696	    -10.06985535	      2.69728598	     15.14451123	     -2.97251375	     -1.37178284	    -61.29376848	      4.32487094	     -7.70039112	      4.84973083	      4.35770589	      4.44830215	     -0.61271370
      0.86250000	     -0.07771790	     -1.50461722	     -2.05477652	     -0.43360986	      1.07492776	      0.35552588	      5.86500935	      7.52637483	     -0.57306941	     -9.58202410	     -0.21960868	    -10.02632963	      2.71366233	     15.59685906	     -2.89139616	     -1.25473134	    -60.82096089	      4.80808140	     -8.01739900	      4.77479592	      4.30697096	      4.32604333	     -0.53252290
      0.86666667	     -0.08518045	     -1.40793681	     -2.16136883	     -0.42868974	      1.07541389	      0.35567360	      5.51111389	      7.41587802	     -0.47947129	     -9.45989519	     -0.13913561	     -9.99925432	      2.72102604	     16.05675252	     -2.77586219	     -1.10548576	    -60.27479098	      5.05606500	     -8.16247437	      4.73992331	      4.22945370	      4.27272805	     -0.49035072
      0.87083333	     -0.04991976	     -1.35301751	     -2.27941221	     -0.42370409	      1.07593525	      0.35607134	      5.08535934	      7.37859718	     -0.33560376	     -9.28422746	      0.05628012	     -9.91597493	      2.73788704	     16.44691480	     -2.74013086	     -1.02424038	    -59.69412087	      5.60302937	     -8.50316161	      4.65977699	      4.21284590	      4.09728020	     -0.36006985
      0.87500000	     -0.02933160	     -1.27899252	     -2.41452395	     -0.41877011	      1.07640836	      0.35631937	      4.68945912	      7.30156957	     -0.20654865	     -9.13870965	      0.22031747	     -9.82829205	      2.75425638	     16.83564299	     -2.66511032	     -0.92721378	    -59.04028824	      5.96339387	     -8.69557245	      4.57214010	      4.13512572	      4.00998759	     -0.23231430
